<svg id="Layer_7" data-name="Layer 7" xmlns="http://www.w3.org/2000/svg" viewBox="0 0 365.83 365.83"><defs><style>.cls-1{stroke:#b1121a;stroke-width:12px;}.cls-1,.cls-2{stroke-miterlimit:10;}.cls-2{fill:#fff;stroke:#000;stroke-width:2px;}</style></defs><circle class="cls-1" cx="182.91" cy="182.91" r="176.91"/><path class="cls-2" d="M1032.9,437.08c-.28,8.63-2.61,15.39-8.64,20.39a25.5,25.5,0,0,1-33.54-1.7A27.31,27.31,0,0,1,982,435.56c-.07-13.05,8.55-22.19,20.23-24.18a27.29,27.29,0,0,1,17.36,2.32c7,3.53,10.71,9.49,12.36,16.9C1032.5,433,1032.69,435.55,1032.9,437.08Z" transform="translate(-776.97 -356.93)"/><path class="cls-2" d="M865.41,530.51a6.51,6.51,0,0,1,.2-.81c3.58-8.7,6.79-17.56,11.21-25.91A127.51,127.51,0,0,1,898,474.15c9.08-9.31,20-14.48,33.1-14.83,7.65-.21,15.24.52,22.84,1.13,4.69.37,9.39.81,14.08,1.26a87.69,87.69,0,0,1,25.51,6.63q25.11,10.53,50.21,21.09a17.07,17.07,0,0,0,3.79,1.06,7.5,7.5,0,0,0,8.23-4.05c1.79-3.11,3.42-6.31,5.08-9.5q9.18-17.69,18.33-35.4c.73-1.41,1.34-2.89,2-4.35s1-1.64,2.63-1c-.15,3.12-.26,6.27-.48,9.41-.42,5.86-.79,11.72-1.39,17.55a103.24,103.24,0,0,1-10.11,35.13c-1.91,3.9-4,7.71-6.16,11.5a10.52,10.52,0,0,1-11,5.28c-13.21-1.88-26.29-4.43-39.27-7.45-4.25-1-6.68-.13-8.81,3.43-6.34,10.6-14.28,19.92-22.66,28.9-6.29,6.74-12.75,13.34-19.13,20-.38.4-.75.82-1.25,1.36l2.7,1.42q21.59,11.16,43.18,22.32a54.52,54.52,0,0,1,11.73,8c4.83,4.41,6.13,9.41,3.95,15.61-1.85,5.25-4.83,9.88-7.89,14.47a145.74,145.74,0,0,1-51,47.41,123.64,123.64,0,0,1-20.57,9.34,92.05,92.05,0,0,1-10.48,2.4c-.39.09-1.13-.14-1.24-.41a3.12,3.12,0,0,1-.07-1.77c.07-.32.51-.59.82-.83,21-16.67,37.1-37.3,49.57-60.89q2.63-5,5.21-10c.2-.38.37-.79.66-1.4-1.74-.32-3.36-.64-5-.89a229.5,229.5,0,0,1-36.59-8.93c-6.51-2.16-12.94-4.56-19.36-7-5.88-2.21-10.6-5.88-13.53-11.56-3.56-6.9-3.2-13.93-.1-20.79a65.53,65.53,0,0,1,5.83-10.15c4.55-6.61,9.43-13,14-19.57,7.16-10.22,11.48-21.66,14.23-33.76.32-1.44.63-2.88.92-4.33.19-.9.32-1.81.5-2.89-.73-.15-1.45-.33-2.17-.42-5.9-.78-11.79-1.57-17.69-2.31a21.45,21.45,0,0,0-16.83,5.08c-6.3,5.17-12.48,10.48-18.72,15.72l-28.82,24.22C866.38,529.77,866,530.05,865.41,530.51Z" transform="translate(-776.97 -356.93)"/><path class="cls-2" d="M799.59,714.54c.55-1.51.73-2.56,1.17-4.1,1.74-6,3.63-12,6.7-17.52,7.47-13.45,17.52-24.75,29-34.82,3.79-3.32,7.56-6.67,11.43-9.9a80,80,0,0,0,17.21-20.73c4.7-7.85,9.47-15.66,15.32-22.72,8.86-10.68,15.87-19.33,24.79-30,.44-.53.15,0,1.12-1,0,0,.67.07.8.38a53.42,53.42,0,0,0,8,12.74c5.78,5.31,10.63,7.25,18.15,10,.7.4,1.41.77,2.26,1.23-.41.36-5.56,4.52-5.88,4.79-15.44,13.29-30.94,26.53-46.3,39.92-6.66,5.8-13.08,11.87-19.51,17.94a17.94,17.94,0,0,0-5.91,13.2,5.35,5.35,0,0,1-1.7,4.06,31,31,0,0,1-2.9,2.49q-21.14,14.81-42.29,29.57c-2.45,1.72-5,4.2-7.86,5.16a12.92,12.92,0,0,1-2.62.63C799.65,716,799.79,714.83,799.59,714.54Zm45.9-45.06q10.86-10.26,21.65-20.58c.25-.23.47-.5.83-.89l-6.15-4.52c-2.93,2.77-5.82,5.45-8.66,8.2-4.48,4.33-8.91,8.72-13.39,13.07a6.44,6.44,0,0,0-2.13,4.37c-.09,1.38-.28,2.76-.45,4.34A15.32,15.32,0,0,0,845.49,669.48Z" transform="translate(-776.97 -356.93)"/></svg>