<svg id="Layer_6" data-name="Layer 6" xmlns="http://www.w3.org/2000/svg" viewBox="0 0 1049.88 246.89"><defs><style>.cls-1,.cls-4,.cls-5,.cls-7{fill:#b1121a;}.cls-2{font-size:84px;letter-spacing:0.02em;}.cls-2,.cls-3{font-family:PTSerif-Bold, PT Serif;font-weight:700;}.cls-3{font-size:66px;letter-spacing:0.03em;}.cls-4{letter-spacing:-0.01em;}.cls-5{letter-spacing:-0.01em;}.cls-6{letter-spacing:0.02em;}.cls-7{stroke:#b1121a;stroke-linecap:round;stroke-linejoin:round;stroke-width:8px;}</style></defs><path d="M602.6,437.53c-.22,6.9-2.08,12.31-6.91,16.31a20.41,20.41,0,0,1-26.83-1.36,21.86,21.86,0,0,1-7-16.17c0-10.44,6.84-17.75,16.19-19.34A21.79,21.79,0,0,1,592,418.83c5.58,2.82,8.57,7.59,9.89,13.51C602.28,434.29,602.43,436.31,602.6,437.53Z" transform="translate(-415.08 -416.59)"/><path class="cls-1" d="M415.08,662.39c.44-1.21.58-2,.93-3.28a66.92,66.92,0,0,1,5.36-14c6-10.75,14-19.79,23.23-27.85,3-2.66,6-5.34,9.14-7.92a64.08,64.08,0,0,0,13.77-16.59,143.5,143.5,0,0,1,12.26-18.17c7.08-8.54,12.69-15.46,19.83-24,.35-.42.11,0,.89-.77,0,0,.54.05.65.3a42.51,42.51,0,0,0,6.37,10.19c4.62,4.25,8.5,5.8,14.52,8,.56.32,1.13.62,1.81,1-.33.29-4.45,3.61-4.71,3.83-12.35,10.64-24.75,21.23-37,31.94-5.32,4.64-10.46,9.5-15.6,14.35A14.42,14.42,0,0,0,461.75,630a4.27,4.27,0,0,1-1.35,3.25,24.48,24.48,0,0,1-2.33,2Q441.18,647,424.25,658.85c-2,1.37-4,3.35-6.3,4.12a8.42,8.42,0,0,1-2.09.51C415.12,663.54,415.23,662.62,415.08,662.39Zm36.72-36q8.68-8.22,17.32-16.47c.2-.19.37-.4.66-.71l-4.92-3.61c-2.34,2.21-4.66,4.35-6.92,6.55-3.59,3.47-7.14,7-10.72,10.46a5.16,5.16,0,0,0-1.7,3.49c-.07,1.11-.23,2.21-.36,3.48A12.27,12.27,0,0,0,451.8,626.34Z" transform="translate(-415.08 -416.59)"/><path d="M468.61,512.27a4.91,4.91,0,0,1,.16-.65c2.87-7,5.43-14.05,9-20.72a101.77,101.77,0,0,1,16.93-23.71c7.26-7.45,16-11.59,26.47-11.87a171.59,171.59,0,0,1,18.28.9c3.75.3,7.51.65,11.26,1a70.4,70.4,0,0,1,20.41,5.3q20.08,8.43,40.17,16.88a13.23,13.23,0,0,0,3,.84,6,6,0,0,0,6.59-3.23c1.43-2.49,2.73-5.06,4.06-7.61q7.35-14.15,14.66-28.31c.59-1.13,1.07-2.32,1.59-3.49s.78-1.31,2.11-.79c-.13,2.49-.21,5-.39,7.53-.33,4.68-.63,9.37-1.11,14a82.51,82.51,0,0,1-8.09,28.1c-1.53,3.12-3.22,6.16-4.92,9.2a8.42,8.42,0,0,1-8.83,4.22c-10.56-1.51-21-3.54-31.42-6-3.39-.79-5.34-.1-7,2.75-5.07,8.47-11.43,15.93-18.13,23.12-5,5.39-10.2,10.67-15.3,16-.31.32-.6.65-1,1.08l2.15,1.14q17.28,8.93,34.55,17.85a44.12,44.12,0,0,1,9.39,6.42c3.86,3.53,4.89,7.53,3.15,12.49a53,53,0,0,1-6.3,11.58,116.62,116.62,0,0,1-40.84,37.92,100.32,100.32,0,0,1-16.46,7.48,73.94,73.94,0,0,1-8.39,1.92c-.31.06-.9-.11-1-.33a2.53,2.53,0,0,1-.05-1.42c.05-.26.4-.47.65-.66,16.79-13.34,29.68-29.84,39.66-48.71,1.4-2.65,2.78-5.32,4.17-8,.16-.31.29-.63.52-1.12-1.39-.25-2.68-.51-4-.72A182.44,182.44,0,0,1,535,565.62c-5.21-1.73-10.36-3.64-15.49-5.57a19.26,19.26,0,0,1-10.83-9.25c-2.84-5.52-2.55-11.14-.08-16.64a52.3,52.3,0,0,1,4.67-8.11c3.64-5.29,7.54-10.4,11.23-15.66,5.73-8.17,9.19-17.33,11.38-27,.26-1.15.51-2.3.74-3.46.15-.72.25-1.45.4-2.31-.59-.12-1.16-.27-1.74-.34q-7.06-.94-14.15-1.85a17.2,17.2,0,0,0-13.46,4.07c-5,4.13-10,8.38-15,12.58l-23.05,19.37C469.38,511.68,469.08,511.9,468.61,512.27Z" transform="translate(-415.08 -416.59)"/><text class="cls-2" transform="translate(228.28 120.52)">SCALPEL RUNNERS</text><text class="cls-3" transform="translate(228.28 197.57)">Cut<tspan class="cls-4" x="115.37" y="0">.</tspan><tspan x="134.24" y="0" xml:space="preserve"> Stitch</tspan><tspan class="cls-4" x="349.2" y="0">.</tspan><tspan x="368.08" y="0" xml:space="preserve"> Heal</tspan><tspan class="cls-5" x="539.01" y="0">.</tspan><tspan class="cls-6" x="557.89" y="0"> </tspan></text><line class="cls-7" x1="799.29" y1="178.53" x2="1043.29" y2="178.53"/></svg>