<svg id="Layer_25" data-name="Layer 25" xmlns="http://www.w3.org/2000/svg" viewBox="0 0 481.56 481.56"><defs><style>.cls-1{stroke:#b1111a;stroke-width:16px;}.cls-1,.cls-3{stroke-miterlimit:10;}.cls-2{fill:#fff;}.cls-3,.cls-4{fill:#b1111a;}.cls-3{stroke:#000;stroke-width:15.99px;}</style></defs><circle class="cls-1" cx="240.78" cy="240.78" r="232.78"/><path class="cls-2" d="M1074,391.67c-.28,8.62-2.61,15.39-8.64,20.38a25.5,25.5,0,0,1-33.54-1.7,27.33,27.33,0,0,1-8.71-20.21c-.06-13,8.55-22.19,20.24-24.17a27.19,27.19,0,0,1,17.35,2.32c7,3.53,10.71,9.48,12.36,16.89C1073.57,387.62,1073.76,390.14,1074,391.67Z" transform="translate(-730.17 -278.64)"/><path class="cls-3" d="M874,630.45a15.32,15.32,0,0,1,4-8.3q10.26-10.86,20.58-21.65c.23-.25.5-.47.89-.83l4.52,6.15c-2.77,2.92-5.45,5.82-8.19,8.66-4.34,4.48-8.73,8.91-13.08,13.39a6.44,6.44,0,0,1-4.37,2.13C876.91,630.08,875.53,630.28,874,630.45Z" transform="translate(-730.17 -278.64)"/><path class="cls-4" d="M839.57,672.74c.54-1.51.72-2.56,1.17-4.1,1.74-6,3.63-12,6.69-17.53,7.48-13.45,17.53-24.74,29-34.82,3.79-3.32,7.55-6.67,11.42-9.89a79.86,79.86,0,0,0,17.21-20.74c4.71-7.84,9.47-15.66,15.33-22.71,8.85-10.68,15.87-19.34,24.78-30,.44-.52.15,0,1.12-1,0,0,.67.08.81.38a52.91,52.91,0,0,0,8,12.74c5.77,5.31,10.62,7.25,18.14,10,.7.4,1.42.77,2.27,1.23-.41.36-5.57,4.52-5.88,4.79-15.45,13.3-30.95,26.53-46.31,39.92-6.65,5.81-13.08,11.88-19.5,17.94a18,18,0,0,0-5.92,13.21,5.29,5.29,0,0,1-1.7,4,29.87,29.87,0,0,1-2.9,2.5Q872.19,653.56,851,668.31c-2.45,1.72-5,4.2-7.86,5.16a10.36,10.36,0,0,1-2.62.63C839.62,674.17,839.76,673,839.57,672.74Zm45.9-45.07q10.85-10.26,21.65-20.57c.25-.24.46-.51.83-.9l-6.16-4.51c-2.92,2.76-5.82,5.44-8.65,8.19-4.48,4.34-8.92,8.73-13.39,13.07a6.4,6.4,0,0,0-2.13,4.37c-.09,1.38-.29,2.76-.45,4.35A15.33,15.33,0,0,0,885.47,627.67Z" transform="translate(-730.17 -278.64)"/><path class="cls-2" d="M906.48,485.09a7.05,7.05,0,0,1,.2-.81c3.59-8.7,6.79-17.56,11.22-25.9a126.75,126.75,0,0,1,21.15-29.64c9.08-9.31,20-14.48,33.1-14.84,7.65-.2,15.24.53,22.84,1.13q7.05.57,14.08,1.27a87.67,87.67,0,0,1,25.51,6.62q25.11,10.53,50.21,21.1a17,17,0,0,0,3.79,1.05,7.52,7.52,0,0,0,8.24-4c1.78-3.12,3.41-6.32,5.07-9.51q9.18-17.68,18.33-35.39c.74-1.42,1.34-2.9,2-4.36s1-1.64,2.63-1c-.15,3.12-.25,6.27-.48,9.41-.42,5.85-.79,11.71-1.39,17.55a103.19,103.19,0,0,1-10.11,35.12c-1.91,3.91-4,7.71-6.15,11.51a10.55,10.55,0,0,1-11,5.28c-13.21-1.89-26.28-4.43-39.27-7.46-4.25-1-6.68-.12-8.81,3.44-6.34,10.59-14.28,19.92-22.66,28.89-6.29,6.75-12.75,13.34-19.13,20-.38.4-.75.81-1.25,1.35,1,.52,1.83,1,2.7,1.42q21.59,11.16,43.18,22.32a54.57,54.57,0,0,1,11.73,8c4.83,4.4,6.13,9.41,3.95,15.6-1.85,5.25-4.83,9.89-7.89,14.48a145.63,145.63,0,0,1-51.05,47.4,123.64,123.64,0,0,1-20.57,9.34,90,90,0,0,1-10.48,2.41c-.39.08-1.13-.14-1.24-.42a3.09,3.09,0,0,1-.07-1.76c.07-.33.51-.59.82-.84,21-16.67,37.1-37.29,49.57-60.88q2.63-5,5.21-10c.2-.38.37-.78.66-1.4-1.74-.31-3.36-.63-5-.89a227.36,227.36,0,0,1-36.59-8.93c-6.51-2.16-12.94-4.55-19.36-7-5.88-2.21-10.6-5.87-13.53-11.56-3.56-6.9-3.2-13.92-.1-20.79a66,66,0,0,1,5.83-10.15c4.55-6.61,9.43-13,14-19.57,7.16-10.22,11.49-21.66,14.23-33.76.32-1.44.63-2.88.93-4.33.18-.89.31-1.8.49-2.89-.73-.14-1.45-.32-2.17-.42-5.9-.78-11.79-1.57-17.69-2.31a21.49,21.49,0,0,0-16.83,5.08c-6.3,5.18-12.48,10.48-18.72,15.73L907.8,484.05C907.45,484.35,907.07,484.63,906.48,485.09Z" transform="translate(-730.17 -278.64)"/></svg>