<svg id="Layer_13_copy" data-name="Layer 13 copy" xmlns="http://www.w3.org/2000/svg" viewBox="0 0 577.67 591.47"><defs><style>.cls-1,.cls-3{stroke:#000;stroke-miterlimit:10;}.cls-1{stroke-width:16.48px;}.cls-2{fill:#fff;}.cls-3{stroke-width:15.99px;}.cls-4{fill:#b1121a;}</style></defs><circle class="cls-1" cx="288.63" cy="303.98" r="232.78"/><path class="cls-2" d="M1116.61,399.85c-.29,8.63-2.61,15.39-8.65,20.39a25.5,25.5,0,0,1-33.54-1.7,27.34,27.34,0,0,1-8.71-20.21c-.06-13.05,8.55-22.2,20.24-24.18a27.26,27.26,0,0,1,17.35,2.32c7,3.53,10.71,9.49,12.36,16.89C1116.21,395.8,1116.39,398.32,1116.61,399.85Z" transform="translate(-724.95 -223.63)"/><path class="cls-3" d="M916.58,638.63a15.39,15.39,0,0,1,4-8.3q10.26-10.85,20.58-21.65c.24-.25.5-.47.9-.83l4.51,6.16c-2.76,2.92-5.45,5.81-8.19,8.65-4.34,4.48-8.73,8.91-13.07,13.39a6.48,6.48,0,0,1-4.37,2.13C919.54,638.27,918.17,638.46,916.58,638.63Z" transform="translate(-724.95 -223.63)"/><path class="cls-4" d="M882.2,680.92c.55-1.51.72-2.56,1.17-4.1,1.74-6,3.63-12,6.7-17.53,7.47-13.44,17.52-24.74,29-34.81,3.79-3.32,7.55-6.68,11.43-9.9a79.62,79.62,0,0,0,17.2-20.74c4.71-7.84,9.48-15.65,15.33-22.71,8.86-10.68,15.87-19.33,24.79-30,.44-.53.14,0,1.11-1,0,0,.68.07.81.38a52.85,52.85,0,0,0,8,12.73c5.77,5.32,10.62,7.26,18.15,10,.7.41,1.41.78,2.26,1.24-.41.36-5.57,4.51-5.88,4.78-15.44,13.3-30.94,26.54-46.3,39.93-6.66,5.8-13.09,11.87-19.51,17.93a18,18,0,0,0-5.92,13.21,5.31,5.31,0,0,1-1.69,4.06,34,34,0,0,1-2.9,2.49q-21.13,14.8-42.29,29.57c-2.46,1.71-5,4.19-7.86,5.16a12.92,12.92,0,0,1-2.62.63C882.25,682.36,882.39,681.21,882.2,680.92Zm45.9-45.06q10.85-10.26,21.65-20.58c.25-.23.47-.5.83-.9l-6.16-4.51c-2.92,2.76-5.81,5.45-8.65,8.19-4.48,4.34-8.91,8.73-13.39,13.08a6.44,6.44,0,0,0-2.13,4.36c-.09,1.39-.28,2.77-.45,4.35A15.35,15.35,0,0,0,928.1,635.86Z" transform="translate(-724.95 -223.63)"/><path class="cls-2" d="M949.12,493.28a5.45,5.45,0,0,1,.19-.81c3.59-8.7,6.8-17.56,11.22-25.91a127.76,127.76,0,0,1,21.15-29.64c9.09-9.31,20-14.48,33.1-14.83,7.65-.21,15.24.52,22.84,1.13,4.7.37,9.39.8,14.08,1.26a87.69,87.69,0,0,1,25.51,6.63c16.74,7,33.47,14.08,50.21,21.09a17.07,17.07,0,0,0,3.79,1.06,7.51,7.51,0,0,0,8.24-4.05c1.78-3.11,3.42-6.32,5.07-9.5q9.2-17.68,18.34-35.4c.73-1.41,1.33-2.9,2-4.35s1-1.64,2.64-1c-.16,3.12-.26,6.27-.49,9.41-.41,5.86-.79,11.72-1.38,17.55a103.48,103.48,0,0,1-10.12,35.13c-1.91,3.9-4,7.71-6.15,11.5a10.53,10.53,0,0,1-11,5.28c-13.2-1.88-26.28-4.43-39.27-7.46-4.25-1-6.68-.12-8.81,3.44-6.33,10.59-14.28,19.92-22.65,28.9-6.3,6.74-12.75,13.34-19.14,20-.38.4-.74.81-1.24,1.36l2.69,1.42q21.58,11.16,43.18,22.32a54.47,54.47,0,0,1,11.74,8c4.83,4.4,6.12,9.41,3.94,15.61-1.85,5.25-4.82,9.88-7.88,14.47a145.83,145.83,0,0,1-51,47.41,124.94,124.94,0,0,1-20.58,9.34,92.05,92.05,0,0,1-10.48,2.4c-.39.08-1.13-.14-1.24-.41a3.12,3.12,0,0,1-.06-1.77c.07-.32.51-.59.82-.83,21-16.67,37.09-37.3,49.56-60.89,1.76-3.31,3.48-6.64,5.22-10,.2-.38.37-.79.65-1.41-1.74-.31-3.35-.63-5-.88a230,230,0,0,1-36.59-8.93c-6.5-2.17-12.94-4.56-19.36-7-5.87-2.21-10.6-5.88-13.53-11.56-3.55-6.91-3.19-13.93-.1-20.8A65.49,65.49,0,0,1,1005,510.5c4.55-6.61,9.42-13,14-19.57,7.16-10.22,11.49-21.67,14.23-33.76.33-1.44.64-2.88.93-4.33.18-.9.31-1.81.49-2.89-.73-.15-1.44-.33-2.17-.43-5.89-.78-11.79-1.56-17.69-2.3A21.43,21.43,0,0,0,998,452.3c-6.3,5.17-12.49,10.48-18.73,15.72l-28.81,24.22C950.08,492.54,949.71,492.81,949.12,493.28Z" transform="translate(-724.95 -223.63)"/><path d="M764.76,431c-3.57-1.3-5.83-.13-9.12,3.29l-2.35,2.39c-6.54,6.66-12.23,9.79-19.72,7.06-8.12-2.95-10.67-11.31-6.94-21.56a25.54,25.54,0,0,1,8.09-11.54l9.28,4-2.26,6.21-10.81-2.06,3.92-4.75,3.38,1.23c-3.92,2.66-6.25,4.7-7.52,8.19-1.4,3.86-.09,7.86,3.62,9.21s6.23-.16,9.48-3.51l2.61-2.65c7-7.23,12.05-9.42,18.9-6.93,8,2.9,11.42,11.07,7.21,22.64-1.84,5.07-5.06,10.38-8.87,13.4l-9.92-4.06,2.3-6.31,11.59,2.23-3.55,4.62-3.25-1.18c3.88-3.45,6.1-5.8,7.68-10.16C770.26,436,768.43,432.35,764.76,431Z" transform="translate(-724.95 -223.63)"/><path d="M792.63,382.59l3.22,1.83-1.47,4.72-8.6-7.7,2.72-4.76,9.46,5.73a31,31,0,0,1-4.3,14.95c-6.88,12.05-19.5,17.68-34.11,9.34-14.81-8.45-15.77-22.8-9.07-34.54a28,28,0,0,1,10.09-10.49l9.84,5.28-2.72,4.77-11.11-3.5,3.35-3.64,3.46,2c-4.38,1.45-6.92,3.33-8.53,6.15-3.82,6.68-1.73,15.65,11.06,22.95s21.3,4.68,25.07-1.94C792.77,390.6,793.22,386.81,792.63,382.59Z" transform="translate(-724.95 -223.63)"/><path d="M779,333.93l4.81-5.67,46.63,18.31-8,9.39-37.43-15.64-1-4.4,23.37,37.85L804.65,377Zm17.46,25,12.58-14.82,4.24,1.48-14.4,17Zm2.5,18.81,4-6.35.83-1,5.24-4.51,3,2.5-10,11.84Zm16.18-18.84,4.44-6.9,3.12-3.67,6.8-6.35,2.83,2.4L818,361.28Z" transform="translate(-724.95 -223.63)"/><path d="M808.42,307.82l-2.46-3,18.36-15.06,2.45,3-7.55,7.59-2,1.67Zm1.66-6.37,9.68-7.94c4.47,5.79,9.22,11.58,14,17.39l2.41,2.93c4,4.9,8.76,10.69,13.61,16.25L840.08,338c-4.47-5.79-9.22-11.57-13-16.22l-2.65-3.23C819.67,312.81,814.93,307,810.08,301.45Zm31.71,28.78,3.13,3.82L836,341.4l-2.46-3,7.4-7.46Zm14.62-23.84,8.39,11.36-19.88,16.3-2.61-3.18,18-14.77-1.62,6.65-6.76-12.7Z" transform="translate(-724.95 -223.63)"/><path d="M848,276.68l-1.9-3.37,10.09-5.7,2.43,4.3-1,.56ZM861.94,290c-3.65-6.45-7.34-13-11.17-19.32l10.9-6.16c3.39,6.43,7.07,13,10.79,19.53l2.16,3.83c2.9,5.12,6.49,11.47,10.33,17.82L874,311.87c-3.38-6.44-7.07-13-10.79-19.54Zm15.67-.94-7,4-2-3.52,7.11-4c5.53-3.13,6.1-8.53,2.86-14.26s-8-7-13.47-3.91l-6.85,3.87-2-3.6,6.95-3.93c13.07-7.39,21-5.42,25.27,2.05C892.48,272.89,891.21,281.38,877.61,289.07ZM879,303.41l9.63-4.2,1.91,3.36-21.08,11.92-1.9-3.37,8.56-6.08Z" transform="translate(-724.95 -223.63)"/><path d="M894.35,251.87l-1.29-3.64L904,244.36l1.65,4.67-1.07.37Zm11.38,15.55c-2.47-7-5-14.05-7.65-21l11.8-4.18c2.23,6.93,4.73,14,7.25,21.11l.79,2.24c2.57,7.27,5.07,14.33,7.75,21.24L913.87,291c-2.23-6.92-4.73-14-7.25-21.11Zm14.8-28.91,6.27,2.09-21.46,7.6L904,244.36l23.74-8.4,4.61,11.52-5.66,2Zm-2.41,45.78,1.65,4.66-10.92,3.87-1.3-3.65,9.49-4.5Zm9.15-21.64-14.94,5.29-1.42-4,15-5.29Zm13.93,5.56,3.66,11.86L919.77,289l-1.34-3.78,22.82-8.08-3.58,5.52-2.13-12.39Zm-17-7.66-1.29-6.87,3.94-1.39L932,266.9l-3.94,1.39-3.44-6.48Z" transform="translate(-724.95 -223.63)"/><path d="M943.62,235.73l-.65-3.81,23.41-4,.65,3.81-10.32,2.86-2.6.44Zm4.6-4.7,12.35-2.11c1,7.24,2.27,14.63,3.54,22l.64,3.74c1.06,6.24,2.32,13.62,3.77,20.85l-12.34,2.11c-1-7.25-2.28-14.63-3.29-20.56l-.7-4.11C950.94,245.64,949.68,238.26,948.22,231Zm13.3,40.7.83,4.87-11.42,1.95-.65-3.81,10.12-2.82ZM986,258.25l1.66,14-25.34,4.32-.69-4.06,23-3.91-4.7,5,.41-14.38Z" transform="translate(-724.95 -223.63)"/><path d="M1025,266.91l10.32,1.94-.32,3.85-23.09-1.92.32-3.85,10.5-.21Zm-9.49-39.42.32-3.86,11.55,1-.41,4.93-1.13-.1Zm4,18.85c.61-7.39,1.23-14.86,1.63-22.26l12.28,1c-.83,7.29-1.44,14.63-2.09,22.42l-.18,2.21c-.64,7.64-1.26,15.1-1.66,22.51l-12.27-1c.82-7.23,1.44-14.69,2.06-22.23Zm6.19-.27,8.45.7c7.13.6,9.65-3.38,10-8,.48-5.76-2.42-8.81-8.27-9.3l-8.88-.74.34-4.12,11.8,1c11.29.94,17.17,5.92,16.55,13.36-.46,5.48-5,10.77-17.78,10.4l.12-.73c11.3,1.29,13.84,5.24,14.46,13.05l1,11.24-5.59-4.18,10.66,2.07-.33,3.85a27.12,27.12,0,0,1-7.94.37c-6.1-.51-9.55-2.57-9.79-8.21l-.65-8.44c-.31-4.89-1.9-7.24-6.2-7.59l-8.31-.7Z" transform="translate(-724.95 -223.63)"/><path d="M1086.38,277.14c6.22,1.75,11.11-1.36,14-11.82l7.28-25.92,4.52,1.27L1105,266.59c-4.14,14.71-12.7,19-24.16,15.78-10.25-2.88-16.27-10-12.5-23.48l2.12-7.54c1.92-6.84,3.89-13.85,5.63-20.85l12.06,3.39c-2.12,6.74-4.09,13.75-6,20.73l-1.5,5.33C1077.57,270.57,1079.81,275.29,1086.38,277.14Zm-16.32-44.3,1-3.72,22.61,6.35-1,3.72-10.6-1.86-2-.55Zm37.51,11.23-7.19-2.72,1-3.72,16.54,4.65-1,3.72-7.3-1.36Z" transform="translate(-724.95 -223.63)"/><path d="M1110.86,286l7.29,2.58,1.84.95,7.72,5.24-1.79,3.43-16.85-8.77Zm25.49-35.71,2.3,5.62-20,38.49-4.11-2.15Zm-3.27,1.17,2.74,3.72L1129.2,251l1.81-3.48,14.42,7.51,6.54,43.37L1146.42,309l-5.4-2.81Zm31.14,13.34,4.12,2.15L1146.42,309l-2-6.25Zm-7.3-3.8,16.85,8.77-1.79,3.43-7-2.41-1.78-.93-8.09-5.43Z" transform="translate(-724.95 -223.63)"/><path d="M1158.86,311.7l6.6,4,1.6,1.31,6.47,6.72-2.45,3-14.68-12.06ZM1191.17,282l1.09,6-27.55,33.52-3.58-2.95Zm-3.44.46,1.91,4.21-5.61-5.47,2.49-3,12.56,10.33-2.56,43.78-7.62,9.27-4.71-3.87ZM1215.45,302l3.58,2.95-30.13,36.65-.64-6.53Zm-6.37-5.23,14.68,12.06-2.46,3L1215,308l-1.55-1.28-6.79-7Z" transform="translate(-724.95 -223.63)"/><path d="M1208.26,355.06l-3.8,3.16-7.42-8.89,3-2.48,7.52,7.33Zm11.51-17.48c5.7-4.75,11.45-9.55,17-14.46l8,9.61c-5.72,4.49-11.48,9.29-17.28,14.13l-1.82,1.52c-5.92,4.94-11.67,9.74-17.23,14.65l-8-9.62c5.72-4.49,11.47-9.28,17.28-14.13Zm11.59,33.54-9.85,7.55-17-20.45,3.08-2.57,15.51,18.59-6.43-1.43,10.89-6.31Zm.38-15-10.16-12.18,3.26-2.72L1235,353.4Zm.9-3.61,6-3.6,2.67,3.21-11.9,9.93-2.68-3.2,4.89-5.49Zm-2.24-31,3-2.48,7.42,8.9-3.8,3.17-.73-.87ZM1252,341.41l.22,6.61-14.58-17.49,3.12-2.61,16.13,19.35-9.2,8.33-3.85-4.62Z" transform="translate(-724.95 -223.63)"/><path d="M1235.75,392.25l4.15,9.65-3.37,1.88-11.31-20.22,3.38-1.89,6,8.6Zm14-16.05c6.47-3.62,13-7.27,19.37-11.08l6,10.75c-6.5,3.39-12.93,7-19.76,10.8l-1.93,1.08c-6.7,3.74-13.23,7.4-19.6,11.2l-6-10.74c6.45-3.36,13-7,19.59-10.71Zm3.68,5,4.14,7.4c3.49,6.25,8.2,6.12,12.25,3.85,5-2.82,6-6.92,3.09-12.05l-4.35-7.78,3.62-2,5.77,10.33c5.53,9.89,4.69,17.55-1.84,21.19-4.79,2.69-11.72,1.87-18.55-8.93l.67-.31c5.24,10.09,3.38,14.4-2.74,19.28l-8.77,7.1.34-7,4.24,10-3.37,1.89a27.28,27.28,0,0,1-4.75-6.38c-3-5.35-3.2-9.36,1.34-12.71l6.64-5.25c3.88-3,4.94-5.62,2.83-9.38l-4.07-7.29Zm9.72-18.83,3.37-1.88,5.66,10.11-4.32,2.41-.55-1Z" transform="translate(-724.95 -223.63)"/><path d="M1265.87,447.11c3.59-1.24,4.61-3.57,5-8.3l.32-3.34c.9-9.28,3.36-15.29,10.89-17.89,8.18-2.81,15.41,2.09,19,12.4a25.52,25.52,0,0,1,1,14.06l-9.73,2.73-2.15-6.25,9.71-5.2-.07,6.16-3.4,1.17c1.38-4.53,1.9-7.59.69-11.1-1.34-3.88-4.87-6.17-8.6-4.88s-4.75,4-5.16,8.7l-.37,3.69c-.92,10-3.44,14.91-10.33,17.28-8,2.76-15.84-1.43-19.85-13.07-1.76-5.1-2.6-11.25-1.53-16l10.26-3.08,2.19,6.35-10.42,5.56-.15-5.83,3.27-1.12c-.84,5.12-1.09,8.34.42,12.73C1258.48,446.72,1262.18,448.38,1265.87,447.11Z" transform="translate(-724.95 -223.63)"/><path d="M817.24,734.66l-1.73,1.76-2.79-1.74,6.41-4.24,2.61,2.56-5.3,5.13a20.78,20.78,0,0,1-8.9-5.31c-6.6-6.47-8.09-15.56-.24-23.57s17.37-6.3,23.8,0a18.69,18.69,0,0,1,5,8.28L831.08,723l-2.61-2.55,4.13-6.58,1.78,2.78-1.85,1.9c-.19-3.07-1-5-2.52-6.54-3.66-3.59-9.8-3.77-16.67,3.24s-6.62,12.94-3,16.49A11.5,11.5,0,0,0,817.24,734.66Z" transform="translate(-724.95 -223.63)"/><path d="M835.93,745.8c-1.82,2.38-1.63,3.74-.33,4.73,1.51,1.15,4.53,1,6.89.28l1.46,1.12L842,754.45l-2.5-1.9,2.06-.16c-4.42,2-8.48,2.08-11.62-.31s-4.07-6-.16-11l8-10.16.28,2.14-2.83-3.36,1.23-1.61,8.62,4.82.29.87-4.3,5.26Zm.58,11,3.11-4.73,9.68-12.41.26,2.17-2.72-3.28,1.12-1.47,8.55,4.54.29.87-4.23,5.32-9.66,12.68-.73-4.31L846,760.6l-1.35,1.78Z" transform="translate(-724.95 -223.63)"/><path d="M865.41,771.46a4.29,4.29,0,0,0,2.78.44l.4,1.6c-2.35,1.42-5,1.45-8-.38-3.72-2.26-4.89-5.24-2.43-9.28.87-1.43,1.58-2.51,2.55-4.11l4.75-7.8-2.64-1.61,1.48-2.45,5.23,2.33-3.35.22,6.94-5.57,4.18,2.54-4.58,7.33L865,767.39C863.85,769.31,864.19,770.71,865.41,771.46ZM878,755.71l-1.71,2.81-7.54-4.59,1.71-2.81Z" transform="translate(-724.95 -223.63)"/><path class="cls-4" d="M877.05,777.52a4.33,4.33,0,1,1,7.72,3.92,4.33,4.33,0,0,1-7.72-3.92Z" transform="translate(-724.95 -223.63)"/><path d="M926.38,794.82c.8-2.41,0-3.89-2.37-6l-1.64-1.52c-4.57-4.22-6.76-7.95-5.1-13,1.81-5.47,7.33-7.33,14.24-5a16.93,16.93,0,0,1,7.84,5.17l-2.48,6.26-4.18-1.38,1.16-7.25,3.25,2.52-.76,2.28c-1.85-2.57-3.26-4.08-5.61-4.85-2.6-.86-5.24.09-6.06,2.59s.23,4.15,2.53,6.25l1.81,1.69c5,4.54,6.52,7.84,5,12.45-1.77,5.38-7.15,7.83-14.94,5.26a21,21,0,0,1-9.11-5.66l2.51-6.68,4.25,1.4-1.25,7.77-3.16-2.27.73-2.19c2.37,2.52,4,3.95,6.92,4.92C923.19,798.58,925.57,797.29,926.38,794.82Z" transform="translate(-724.95 -223.63)"/><path d="M953.6,805.35a4.32,4.32,0,0,0,2.78-.47l.89,1.38c-1.77,2.1-4.27,3-7.69,2.2-4.25-1-6.31-3.41-5.27-8,.37-1.63.7-2.87,1.11-4.69l2-8.92-3-.68.63-2.79,5.69.53-3.1,1.28,4.79-7.49,4.78,1.07-2,8.41-3.26,14.46C951.44,803.81,952.21,805,953.6,805.35Zm6.92-19-.72,3.21-8.61-1.94.73-3.21Z" transform="translate(-724.95 -223.63)"/><path d="M977.6,810.27l-.31,2.21-12.61-1.81.32-2.21,4.54-.32,3.58.52Zm-10.44.76c.4-2.13,1.15-7,1.57-10l.33-2.27c.37-2.61.54-4.09.71-6L966.9,792l.27-1.87,10.4-1.73.74.62-1.13,6.88-.9,6.3c-.43,3-1.08,7.85-1.29,10Zm4.25-31a4.07,4.07,0,1,1,3.49,4.36A3.86,3.86,0,0,1,971.41,780Z" transform="translate(-724.95 -223.63)"/><path d="M999.22,811.08a4.34,4.34,0,0,0,2.67-.9l1.1,1.23c-1.43,2.35-3.76,3.6-7.26,3.38-4.34-.28-6.76-2.37-6.46-7.1.11-1.67.24-3,.36-4.82l.58-9.12-3.09-.2.18-2.85,5.71-.37-2.87,1.75,3.56-8.15,4.89.31-.66,8.62L997,807.65C996.84,809.9,997.8,811,999.22,811.08Zm3.86-19.81-.21,3.29-8.81-.56.21-3.29Z" transform="translate(-724.95 -223.63)"/><path d="M1018.81,802.08c.17,5.53,2.93,8.48,7,8.35a6.92,6.92,0,0,0,5.32-2.83l1.72,1.42c-1.73,4-5.13,5.94-9.67,6.08-6.54.2-12.07-3.82-12.32-11.89-.25-7.84,5.41-12.57,12.57-12.79,5.07-.15,8.71,2.89,9.18,6.71a3.05,3.05,0,0,1-3.15,2.6c-1.9.06-3.49-1.06-3.83-4.43l-.54-3.41,3.54,1.87a9.57,9.57,0,0,0-4.29-.89C1021.54,793,1018.61,795.59,1018.81,802.08Z" transform="translate(-724.95 -223.63)"/><path d="M1041,783.09l-3,0-.29-2,9.49-3.56.84.37.77,6.67,1.37,9.38.23.6,1.08,7.4c.43,2.94,1.19,7.83,1.59,10l-7.85,1.14c-.22-2.15-.88-7-1.31-10Zm13.89,26.24.32,2.21-12.5,1.82-.32-2.21,4.26-1.59,3.62-.53ZM1065,794.27l.81,5.53c.44,3,1.18,7.84,1.59,10l-7.86,1.14c-.21-2.15-.86-6.95-1.31-10l-.72-5c-.45-3.08-1.23-4-3.15-3.75-1.76.25-3.6,2-5.21,4.66l-1.71.25-.5-3.41,3.11-.45-1.64,1.6c2.63-5.29,5-7.21,8.44-7.71C1061,786.5,1064.2,788.79,1065,794.27Zm-.41,12.67,4.79.27.32,2.21-12.54,1.83-.32-2.21,4.16-1.58Z" transform="translate(-724.95 -223.63)"/><path class="cls-4" d="M1080.1,803.3a4.33,4.33,0,1,1,8.4-2.1,4.33,4.33,0,0,1-8.4,2.1Z" transform="translate(-724.95 -223.63)"/><path d="M1105.7,769.65l-1-2.36,13.84-6.12,1,2.36-6.11,3.49-1.29.57Zm8.28,9.79c-2-4.53-4-9.09-6.14-13.56l7.63-3.37c1.83,4.49,3.85,9.06,5.88,13.67l.6,1.35c2.12,4.8,4.14,9.36,6.26,13.83l-7.63,3.37c-1.83-4.49-3.84-9.06-5.88-13.67Zm9.52,10.39,6.7-2.17,1,2.36-13.85,6.12-1-2.36,5.86-3.38Zm-5.08-10.33-1.13-2.56,16.72-7.39,1.13,2.56Zm4.16-17.31-1-2.36,13.85-6.11,1,2.35-6,3.45-1.23.54Zm8.13,9.86c-2-4.52-4-9.09-6.14-13.56l7.63-3.37c1.83,4.49,3.85,9.06,5.88,13.67l.72,1.63c2,4.52,4,9.08,6.14,13.55l-7.63,3.37c-1.83-4.49-3.85-9.06-6-13.94Zm9.78,10.28,6.6-2.13,1,2.36-13.85,6.12-1-2.36,6-3.45Z" transform="translate(-724.95 -223.63)"/><path d="M1168.89,754.17a10.91,10.91,0,0,1,1.11,2.35l-16.06,9.74-1.32-2.16,7.7-4.67c2-1.2,2-2.24.92-4.07-1.63-2.7-3.73-3.25-5.22-2.35-1.71,1-2.14,3.84,1.46,9.77,3,5,6.88,5.76,10,3.9a7.73,7.73,0,0,0,3.64-5.22l2.22.47c.27,4.23-1.73,7.6-5.7,10-6,3.63-12.59,2.3-16.61-4.32-4.15-6.84-1.13-13.76,4.17-17S1165.87,749.21,1168.89,754.17Z" transform="translate(-724.95 -223.63)"/><path d="M1192.75,748.87l-7.35-9.51c-2.6-3.37-4-3.86-6.44-2a16.92,16.92,0,0,0-3.14,3.3l1.48-3.5,1.76,2.84c1.86,2.61,1.41,4.57,0,5.7a3,3,0,0,1-4,.08c-2.24-3.32-.83-7.82,4.64-12,4.87-3.76,8.39-3.19,12.32,1.9l6.57,8.52c.58.75,1.17.87,1.72.45s.55-.75.51-1.73l1.52-.1c.69,2.78,0,4.62-2.36,6.4C1197.32,751.17,1194.85,750.92,1192.75,748.87Zm-8.66-5.24c1.21-1.67,3.36-4.47,4.82-6.27l1.23,1.58a43.91,43.91,0,0,0-3.79,5.35c-1.15,2.05-1.29,4.2.09,6s3.15,2,4.44,1c.72-.57,1.08-1.33,1.61-3.15l.65-2.33.82.25-.26,3c-.34,3.38-.61,5.46-3.37,7.59-2.94,2.27-6.32,2.11-8.73-1C1179.51,752.9,1179.54,749.85,1184.09,743.63Z" transform="translate(-724.95 -223.63)"/><path d="M1193.78,707.13l.9-.17,4.44,5,12,12.84c2.29,2.45,4.63,4.87,7,7.26l-5.8,5.42q-3.33-3.78-6.78-7.46l-13.74-14.69-2.5,1.68-1.38-1.48Zm24.71,21.57,1.52,1.63-9.58,9-1.53-1.63,2.7-3.84,2.65-2.47Z" transform="translate(-724.95 -223.63)"/><path class="cls-4" d="M1224.79,720.41a4.33,4.33,0,1,1,5.89-6.36,4.33,4.33,0,0,1-5.89,6.36Z" transform="translate(-724.95 -223.63)"/></svg>